<svg width="22" height="22" viewBox="0 0 22 22" fill="none" xmlns="http://www.w3.org/2000/svg">
<path d="M11.0025 5.36072C7.88098 5.36072 5.36319 7.87852 5.36319 11C5.36319 14.1215 7.88098 16.6393 11.0025 16.6393C14.1239 16.6393 16.6417 14.1215 16.6417 11C16.6417 7.87852 14.1239 5.36072 11.0025 5.36072ZM11.0025 14.6662C8.98528 14.6662 7.3362 13.0221 7.3362 11C7.3362 8.9779 8.98037 7.33373 11.0025 7.33373C13.0245 7.33373 14.6687 8.9779 14.6687 11C14.6687 13.0221 13.0196 14.6662 11.0025 14.6662ZM18.1877 5.13005C18.1877 5.86134 17.5988 6.44539 16.8724 6.44539C16.1411 6.44539 15.5571 5.85643 15.5571 5.13005C15.5571 4.40367 16.146 3.81471 16.8724 3.81471C17.5988 3.81471 18.1877 4.40367 18.1877 5.13005ZM21.9227 6.46502C21.8393 4.70306 21.4368 3.14232 20.146 1.85643C18.8601 0.570539 17.2994 0.168086 15.5374 0.079742C13.7215 -0.0233255 8.27853 -0.0233255 6.46258 0.079742C4.70552 0.163178 3.14479 0.565632 1.85399 1.85152C0.56319 3.13741 0.165644 4.69815 0.0773006 6.46011C-0.0257669 8.27606 -0.0257669 13.719 0.0773006 15.535C0.160736 17.2969 0.56319 18.8577 1.85399 20.1435C3.14479 21.4294 4.70061 21.8319 6.46258 21.9202C8.27853 22.0233 13.7215 22.0233 15.5374 21.9202C17.2994 21.8368 18.8601 21.4343 20.146 20.1435C21.4319 18.8577 21.8344 17.2969 21.9227 15.535C22.0258 13.719 22.0258 8.28097 21.9227 6.46502ZM19.5767 17.4834C19.1939 18.4454 18.4528 19.1865 17.4859 19.5742C16.038 20.1485 12.6025 20.0159 11.0025 20.0159C9.40245 20.0159 5.96196 20.1435 4.51902 19.5742C3.55705 19.1914 2.81595 18.4503 2.42822 17.4834C1.85399 16.0356 1.9865 12.6 1.9865 11C1.9865 9.39999 1.8589 5.9595 2.42822 4.51655C2.81104 3.55459 3.55215 2.81348 4.51902 2.42575C5.96687 1.85152 9.40245 1.98404 11.0025 1.98404C12.6025 1.98404 16.0429 1.85643 17.4859 2.42575C18.4479 2.80858 19.189 3.54968 19.5767 4.51655C20.1509 5.96441 20.0184 9.39999 20.0184 11C20.0184 12.6 20.1509 16.0405 19.5767 17.4834Z" fill="white"/>
</svg>
