<svg width="80" height="26" viewBox="0 0 80 26" fill="none" xmlns="http://www.w3.org/2000/svg">
<path d="M2.12512 9.53545H0.18862V0H2.12512V4.69144C2.31374 4.41174 2.49397 4.15322 2.66583 3.91589C2.83768 3.67857 2.98439 3.48362 3.10594 3.33105L5.72147 0H8.00377L4.54574 4.39902L8.67023 9.53545H6.16158L3.30714 5.96919L2.12512 7.47579V9.53545Z" fill="black"/>
<path d="M10.8959 9.53545H8.86514L12.625 0H14.6683L18.4219 9.53545H16.3911L15.6177 7.48851H11.6693L10.8959 9.53545ZM12.3043 5.77213H14.989L13.6435 2.23765L12.3043 5.77213Z" fill="black"/>
<path d="M27.9095 9.53545H25.6837L21.2763 3.02592V9.53545H19.3398V0H21.5655L25.973 6.52225V0H27.9095V9.53545Z" fill="black"/>
<path d="M31.3864 9.53545H29.4499V0H31.3864V3.98582H35.4668V0H37.4033V9.53545H35.4668V5.69584H31.3864V9.53545Z" fill="black"/>
<path d="M40.3584 9.53545H38.3276L42.0874 0H44.1308L47.8843 9.53545H45.8535L45.0802 7.48851H41.1317L40.3584 9.53545ZM41.7667 5.77213H44.4514L43.1059 2.23765L41.7667 5.77213Z" fill="black"/>
<path d="M8.40616 24.8557L7.63911 26C7.36246 25.822 7.09211 25.644 6.82804 25.466C6.56816 25.2838 6.31458 25.1015 6.06727 24.9193C5.66069 25.2711 5.21848 25.5402 4.74065 25.7267C4.26281 25.9089 3.75982 26 3.23169 26C2.61972 26 2.06853 25.8835 1.57812 25.6504C1.0919 25.413 0.706277 25.0888 0.421251 24.6778C0.140417 24.2667 0 23.8005 0 23.2792C0 22.8597 0.0880226 22.4973 0.264068 22.1922C0.444305 21.887 0.676936 21.6201 0.961962 21.3912C1.24699 21.1623 1.55087 20.9547 1.87362 20.7682C1.60117 20.3317 1.3916 19.9121 1.24489 19.5095C1.09819 19.1027 1.02483 18.7213 1.02483 18.3653C1.02483 17.9203 1.12962 17.5262 1.3392 17.1829C1.54878 16.8396 1.838 16.5705 2.20685 16.3756C2.5799 16.1806 3.00325 16.0831 3.47689 16.0831C3.93796 16.0831 4.34455 16.1742 4.69664 16.3565C5.05292 16.5345 5.33166 16.7845 5.53285 17.1066C5.73405 17.4287 5.83464 17.7974 5.83464 18.2127C5.83464 18.6704 5.73195 19.0603 5.52656 19.3824C5.32118 19.7002 5.05711 19.9757 4.73436 20.2088C4.4158 20.4419 4.08257 20.6559 3.73467 20.8509C4.00293 21.1899 4.31521 21.5395 4.67149 21.8998C5.03196 22.2557 5.43645 22.6202 5.88494 22.9932C6.06937 22.7304 6.23703 22.4359 6.38793 22.1095C6.53882 21.7832 6.66876 21.4315 6.77774 21.0543L8.14838 21.4866C8.01006 21.9527 7.84659 22.3871 7.65797 22.7897C7.46935 23.1881 7.25558 23.5526 7.01666 23.8831C7.25977 24.0654 7.48402 24.2306 7.68941 24.379C7.89898 24.5273 8.1379 24.6862 8.40616 24.8557ZM3.16253 20.0181C3.3763 19.8782 3.56701 19.732 3.73467 19.5795C3.90653 19.4227 4.04275 19.2489 4.14335 19.0582C4.24395 18.8675 4.29425 18.6492 4.29425 18.4034C4.29425 18.1025 4.2188 17.8588 4.0679 17.6724C3.91701 17.4817 3.72 17.3863 3.47689 17.3863C3.22959 17.3863 3.0263 17.4838 2.86702 17.6787C2.70774 17.8737 2.6281 18.1301 2.6281 18.4479C2.6281 18.6725 2.67212 18.9183 2.76014 19.1853C2.85235 19.4523 2.98648 19.7299 3.16253 20.0181ZM2.48978 21.62C2.3347 21.7387 2.19637 21.8659 2.07482 22.0015C1.95326 22.1371 1.85686 22.2854 1.7856 22.4465C1.71854 22.6033 1.685 22.7813 1.685 22.9804C1.685 23.2771 1.75836 23.542 1.90506 23.7751C2.05596 24.0082 2.25925 24.1925 2.51493 24.3281C2.77481 24.4595 3.07031 24.5252 3.40145 24.5252C3.66132 24.5252 3.91491 24.4807 4.16221 24.3917C4.40951 24.3027 4.64843 24.1734 4.87897 24.0039C4.39694 23.6013 3.95473 23.2008 3.55234 22.8024C3.15414 22.3998 2.79996 22.0057 2.48978 21.62Z" fill="black"/>
<path d="M12.3609 25.8093V16.2738H15.8504C16.8647 16.2738 17.6506 16.4921 18.2081 16.9286C18.7698 17.3609 19.0506 17.969 19.0506 18.7531C19.0506 19.2319 18.9395 19.6557 18.7174 20.0245C18.4952 20.3889 18.1955 20.6665 17.8183 20.8572C18.3548 21.0183 18.7719 21.2958 19.0695 21.69C19.3713 22.0799 19.5222 22.5588 19.5222 23.1266C19.5222 23.6691 19.3901 24.1416 19.1261 24.5443C18.8662 24.9426 18.4973 25.2541 18.0195 25.4787C17.5458 25.6991 16.9884 25.8093 16.3471 25.8093H12.3609ZM14.2974 20.266H15.7435C16.1752 20.266 16.5168 20.1622 16.7683 19.9545C17.0198 19.7469 17.1456 19.465 17.1456 19.109C17.1456 18.7615 17.0177 18.4882 16.762 18.289C16.5105 18.0856 16.1605 17.9839 15.712 17.9839H14.2974V20.266ZM14.2974 24.0993H15.8629C16.2066 24.0993 16.5042 24.0505 16.7557 23.9531C17.0072 23.8513 17.2 23.7094 17.3342 23.5271C17.4725 23.3407 17.5417 23.1245 17.5417 22.8787C17.5417 22.6329 17.4788 22.4231 17.353 22.2494C17.2315 22.0756 17.0533 21.9443 16.8186 21.8553C16.5839 21.762 16.3051 21.7154 15.9824 21.7154H14.2974V24.0993Z" fill="black"/>
<path d="M28.3181 25.8093H26.1742L24.1937 22.3638H22.6344V25.8093H20.6979V16.2738H24.2817C25.0403 16.2738 25.69 16.3946 26.2307 16.6362C26.7715 16.8778 27.1843 17.2274 27.4693 17.6851C27.7586 18.1385 27.9032 18.6831 27.9032 19.3188C27.9032 19.9715 27.7502 20.5288 27.4442 20.9907C27.1424 21.4484 26.7107 21.7917 26.149 22.0205L28.3181 25.8093ZM22.6344 20.8064H24.1371C24.7113 20.8064 25.1514 20.6856 25.4574 20.444C25.7676 20.1982 25.9227 19.8486 25.9227 19.3951C25.9227 18.9416 25.7676 18.5941 25.4574 18.3526C25.1514 18.1068 24.7113 17.9839 24.1371 17.9839H22.6344V20.8064Z" fill="black"/>
<path d="M33.9893 26C33.2726 26 32.6103 25.8771 32.0025 25.6313C31.3989 25.3813 30.8729 25.0337 30.4244 24.5888C29.9801 24.1395 29.6343 23.614 29.387 23.0122C29.1439 22.4104 29.0223 21.7535 29.0223 21.0416C29.0223 20.3296 29.1439 19.6727 29.387 19.0709C29.6343 18.4649 29.9801 17.9394 30.4244 17.4944C30.8729 17.0494 31.3989 16.704 32.0025 16.4582C32.6103 16.2081 33.2726 16.0831 33.9893 16.0831C34.7061 16.0831 35.3662 16.2081 35.9698 16.4582C36.5734 16.704 37.0953 17.0494 37.5354 17.4944C37.9797 17.9394 38.3255 18.4649 38.5728 19.0709C38.8201 19.6727 38.9437 20.3296 38.9437 21.0416C38.9437 21.7535 38.8201 22.4104 38.5728 23.0122C38.3255 23.614 37.9797 24.1395 37.5354 24.5888C37.0953 25.0337 36.5734 25.3813 35.9698 25.6313C35.3662 25.8771 34.7061 26 33.9893 26ZM33.9893 24.29C34.4127 24.29 34.8046 24.2073 35.165 24.0421C35.5297 23.8768 35.8462 23.6479 36.1144 23.3555C36.3827 23.0588 36.5902 22.7156 36.7369 22.3257C36.8878 21.9315 36.9632 21.5035 36.9632 21.0416C36.9632 20.5796 36.8878 20.1516 36.7369 19.7575C36.5902 19.3633 36.3827 19.0201 36.1144 18.7276C35.8462 18.431 35.5297 18.2021 35.165 18.0411C34.8046 17.8758 34.4127 17.7932 33.9893 17.7932C33.5618 17.7932 33.1657 17.8758 32.801 18.0411C32.4405 18.2021 32.1241 18.431 31.8516 18.7276C31.5834 19.0201 31.3738 19.3633 31.2229 19.7575C31.0762 20.1516 31.0028 20.5796 31.0028 21.0416C31.0028 21.5035 31.0762 21.9315 31.2229 22.3257C31.3738 22.7198 31.5834 23.0652 31.8516 23.3619C32.1241 23.6543 32.4405 23.8831 32.801 24.0484C33.1657 24.2095 33.5618 24.29 33.9893 24.29Z" fill="black"/>
<path d="M44.0365 25.8093H42.1V17.9839H39.321V16.2738H46.8218V17.9839H44.0365V25.8093Z" fill="black"/>
<path d="M49.6573 25.8093H47.7208V16.2738H49.6573V20.2597H53.7378V16.2738H55.6743V25.8093H53.7378V21.9697H49.6573V25.8093Z" fill="black"/>
<path d="M57.2147 25.8093V16.2738H63.3008V17.9839H59.1512V20.1516H63.0431V21.868H59.1512V24.0993H63.3637V25.8093H57.2147Z" fill="black"/>
<path d="M72.4552 25.8093H70.3112L68.3307 22.3638H66.7715V25.8093H64.835V16.2738H68.4187C69.1774 16.2738 69.8271 16.3946 70.3678 16.6362C70.9085 16.8778 71.3214 17.2274 71.6064 17.6851C71.8956 18.1385 72.0402 18.6831 72.0402 19.3188C72.0402 19.9715 71.8872 20.5288 71.5813 20.9907C71.2795 21.4484 70.8477 21.7917 70.2861 22.0205L72.4552 25.8093ZM66.7715 20.8064H68.2741C68.8484 20.8064 69.2885 20.6856 69.5945 20.444C69.9046 20.1982 70.0597 19.8486 70.0597 19.3951C70.0597 18.9416 69.9046 18.5941 69.5945 18.3526C69.2885 18.1068 68.8484 17.9839 68.2741 17.9839H66.7715V20.8064Z" fill="black"/>
<path d="M73.0462 24.7795L73.9642 23.2856C74.2534 23.5229 74.5321 23.7178 74.8004 23.8704C75.0728 24.0187 75.3411 24.1289 75.6052 24.201C75.8692 24.2688 76.1396 24.3027 76.4162 24.3027C76.7432 24.3027 77.0261 24.2561 77.265 24.1628C77.5039 24.0696 77.6884 23.9361 77.8183 23.7623C77.9524 23.5886 78.0195 23.3873 78.0195 23.1584C78.0195 22.8914 77.9357 22.6668 77.768 22.4846C77.6003 22.3024 77.3803 22.1434 77.1078 22.0078C76.8396 21.868 76.5483 21.7345 76.2339 21.6073C75.9279 21.4802 75.6198 21.3425 75.3097 21.1941C75.0037 21.0416 74.7207 20.8615 74.4609 20.6538C74.2052 20.4461 73.9977 20.194 73.8384 19.8973C73.6833 19.5964 73.6058 19.2319 73.6058 18.8039C73.6058 18.2445 73.7441 17.7614 74.0208 17.3545C74.3016 16.9477 74.6851 16.6341 75.1713 16.4137C75.6575 16.1933 76.2129 16.0831 76.8375 16.0831C77.2776 16.0831 77.7345 16.1425 78.2081 16.2611C78.686 16.3798 79.1617 16.5599 79.6353 16.8015L78.8746 18.3844C78.577 18.2021 78.2563 18.058 77.9126 17.9521C77.5689 17.8461 77.2462 17.7932 76.9444 17.7932C76.6719 17.7932 76.433 17.8355 76.2276 17.9203C76.0264 18.0051 75.8692 18.1237 75.7561 18.2763C75.6429 18.4246 75.5863 18.6005 75.5863 18.8039C75.5863 19.0455 75.668 19.2553 75.8315 19.4333C75.995 19.607 76.2066 19.7617 76.4665 19.8973C76.7306 20.0329 77.0135 20.1685 77.3153 20.3042C77.6255 20.4398 77.9378 20.5881 78.2521 20.7491C78.5707 20.9102 78.8599 21.1009 79.1198 21.3213C79.3838 21.5374 79.5955 21.798 79.7548 22.1032C79.9183 22.4041 80 22.7664 80 23.1902C80 23.7496 79.8533 24.2412 79.5599 24.665C79.2665 25.0846 78.8578 25.413 78.3339 25.6504C77.8099 25.8835 77.2 26 76.5042 26C75.8671 26 75.2573 25.8962 74.6746 25.6885C74.092 25.4808 73.5492 25.1778 73.0462 24.7795Z" fill="black"/>
</svg>
