<svg width="25" height="25" viewBox="0 0 25 25" fill="none" xmlns="http://www.w3.org/2000/svg">
<path d="M23.421 17.459L18.1709 15.209C17.9467 15.1134 17.6974 15.0933 17.4607 15.1516C17.224 15.2099 17.0126 15.3436 16.8584 15.5324L14.5334 18.3731C10.8844 16.6527 7.94789 13.7161 6.22745 10.0672L9.06812 7.74214C9.25735 7.58824 9.39128 7.37687 9.44964 7.14005C9.50801 6.90322 9.48762 6.65382 9.39157 6.42962L7.14153 1.17953C7.03611 0.937842 6.84966 0.740512 6.61434 0.621566C6.37902 0.50262 6.10956 0.469514 5.85244 0.527956L0.977359 1.65298C0.729465 1.71022 0.508294 1.8498 0.349943 2.04893C0.191591 2.24806 0.105412 2.49498 0.105469 2.7494C0.105469 14.773 9.85095 24.4998 21.8558 24.4998C22.1103 24.4999 22.3574 24.4138 22.5566 24.2554C22.7558 24.0971 22.8955 23.8759 22.9527 23.6279L24.0778 18.7528C24.1358 18.4944 24.102 18.2239 23.9822 17.9878C23.8623 17.7516 23.6639 17.5647 23.421 17.459Z" fill="black"/>
</svg>
