<svg width="24" height="20" viewBox="0 0 24 20" fill="none" xmlns="http://www.w3.org/2000/svg">
<path d="M21.5331 5.11177C21.5483 5.32496 21.5483 5.53819 21.5483 5.75138C21.5483 12.2539 16.5991 19.7463 7.55333 19.7463C4.7665 19.7463 2.17768 18.9392 0 17.5382C0.395955 17.5839 0.776628 17.5991 1.18782 17.5991C3.48728 17.5991 5.60407 16.8225 7.29444 15.4976C5.13199 15.4519 3.31979 14.0357 2.69542 12.0864C3.00001 12.1321 3.30456 12.1625 3.62439 12.1625C4.066 12.1625 4.50766 12.1016 4.9188 11.9951C2.66499 11.5382 0.974582 9.55849 0.974582 7.16762V7.10673C1.62938 7.47222 2.39087 7.70064 3.19792 7.73106C1.87304 6.84779 1.00505 5.34019 1.00505 3.63459C1.00505 2.7209 1.24866 1.88333 1.67508 1.15236C4.09642 4.13714 7.73605 6.08635 11.8172 6.29959C11.7411 5.9341 11.6954 5.55343 11.6954 5.17271C11.6954 2.46201 13.8883 0.253906 16.6142 0.253906C18.0304 0.253906 19.3096 0.847815 20.2081 1.80721C21.3198 1.59402 22.3858 1.18283 23.33 0.619392C22.9644 1.76155 22.1878 2.72095 21.1675 3.33004C22.1574 3.2235 23.1168 2.94932 24 2.56865C23.3301 3.54323 22.4924 4.41122 21.5331 5.11177Z" fill="white"/>
</svg>
